<svg id="Layer_1" data-name="Layer 1" xmlns="http://www.w3.org/2000/svg" xmlns:xlink="http://www.w3.org/1999/xlink" width="129.88" height="30.35" viewBox="0 0 129.88 30.35"><defs><style>.cls-1{fill:url(#New_Gradient_Swatch);}.cls-2{fill:url(#linear-gradient);}.cls-3{fill:url(#New_Gradient_Swatch_copy);}.cls-4{font-size:18px;fill:#fff;font-family:Arciform, Arciform Sans;letter-spacing:0.19em;}.cls-5{letter-spacing:0.2em;}.cls-6{letter-spacing:0.21em;}.cls-7{letter-spacing:0.26em;}.cls-8{letter-spacing:0.25em;}.cls-9{letter-spacing:0.21em;}.cls-10{letter-spacing:0.2em;}.cls-11{letter-spacing:0.2em;}</style><linearGradient id="New_Gradient_Swatch" x1="10.34" y1="15.75" x2="16.89" y2="-4.13" gradientUnits="userSpaceOnUse"><stop offset="0" stop-color="#ea6452"/><stop offset="0.19" stop-color="#f18647"/><stop offset="0.41" stop-color="#f7a53c"/><stop offset="0.62" stop-color="#fbbc34"/><stop offset="0.82" stop-color="#fec930"/><stop offset="1" stop-color="#ffce2e"/></linearGradient><linearGradient id="linear-gradient" x1="-19.62" y1="18.56" x2="31.69" y2="8.5" gradientUnits="userSpaceOnUse"><stop offset="0" stop-color="#ea6452"/><stop offset="0.26" stop-color="#ef7c4a"/><stop offset="0.82" stop-color="#fbb835"/><stop offset="1" stop-color="#ffce2e"/></linearGradient><linearGradient id="New_Gradient_Swatch_copy" x1="3.39" y1="18.98" x2="9.91" y2="26.14" gradientUnits="userSpaceOnUse"><stop offset="0" stop-color="#aa3255"/><stop offset="0.35" stop-color="#c0394c"/><stop offset="0.7" stop-color="#cd3d46"/><stop offset="1" stop-color="#d23f44"/></linearGradient></defs><title>logo</title><path class="cls-1" d="M5,12.14a13.39,13.39,0,0,1,7.92-2.69c5.2-.08,9.72-2.73,11.72-6.47h0A15.58,15.58,0,0,0,.9,16.22c0,.32,0,.56,0,.88A13.42,13.42,0,0,1,5,12.14Z" transform="translate(-0.9 -0.65)"/><path class="cls-2" d="M7.31,14.56h0A10.48,10.48,0,0,1,14,11.87,10.74,10.74,0,0,0,24.67,3c-2,3.74-6.52,6.22-11.72,6.31A13.39,13.39,0,0,0,5,12,14,14,0,0,0,.93,17.1a14.92,14.92,0,0,0,.86,4.16A27.71,27.71,0,0,1,7.31,14.56Z" transform="translate(-0.9 -0.65)"/><path class="cls-3" d="M11.47,23.63a7.78,7.78,0,0,0-8.57-.29c.07-.53.18-1.05.3-1.56a13.91,13.91,0,0,1,4.11-7.22h0a27.71,27.71,0,0,0-5.52,6.7q.1.29.21.57a15.49,15.49,0,0,0,.78,1.66A7.78,7.78,0,0,0,7.15,31a7.74,7.74,0,0,0-1.2-4.74,7.74,7.74,0,0,0-2.07-2.16,7.78,7.78,0,0,0,7.6-.47Z" transform="translate(-0.9 -0.65)"/><text class="cls-4" transform="translate(32.1 21.35)">c<tspan class="cls-5" x="12.96" y="0">ol</tspan><tspan class="cls-6" x="33.03" y="0">o</tspan><tspan class="cls-7" x="46.73" y="0">r</tspan><tspan class="cls-8" x="56.7" y="0">f</tspan><tspan class="cls-9" x="67.52" y="0">i</tspan><tspan class="cls-10" x="74.14" y="0">s</tspan><tspan class="cls-11" x="85.14" y="0">h</tspan></text></svg>